<svg xmlns="http://www.w3.org/2000/svg" width="394.356" height="429.959" viewBox="0 0 104.34 113.76">
	<style>
		path { fill: #000; }
		@media (prefers-color-scheme: dark) {
		path { fill: #fff; }
		}
	</style>
  <path d="m27.17 23.398.048.142q.095 5.909-3.346 8.97-3.417 3.037-9.706 3.037-6.407 0-10.299-3.915Q0 27.717 0 21.381v-7.214Q0 7.855 3.725 3.939 7.475 0 13.62 0q6.574 0 10.157 3.062 3.607 3.061 3.512 8.899l-.071.142H19.41q0-3.18-1.352-4.556Q16.705 6.17 13.62 6.17q-2.705 0-4.152 2.183-1.448 2.16-1.448 5.766v7.262q0 3.63 1.59 5.813 1.59 2.184 4.556 2.184 2.753 0 3.963-1.377 1.234-1.376 1.234-4.603zM40.15 35.05h-7.997V.497h7.997zm34.812 0h-7.997L54.317 13.311l-.142.048v21.69h-8.02V.497h8.02L66.823 22.21l.142-.047V.498h7.997zm25.7-14.785H88.488v8.614h14.594v6.17H80.468V.5h22.638v6.169H88.488v7.428h12.174zM44.066 46.022H34.93v28.38h-8.02v-28.38h-8.97v-6.17h26.126zm18.747 21.665H52.538l-1.994 6.716h-8.448l11.272-34.551h4.295v.024l.024-.024h4.295l11.295 34.55H64.83zm-8.425-6.17h6.574l-3.228-10.726h-.142zm48.386 8.116q-1.804 2.183-5.078 3.726Q94.42 74.9 89.272 74.9q-6.431 0-10.442-3.94-4.01-3.938-4.01-10.227V53.52q0-6.24 3.892-10.203 3.915-3.963 10.061-3.963 6.62 0 9.99 2.966 3.394 2.942 3.275 8.068l-.047.142h-7.523q0-2.539-1.352-3.773-1.353-1.234-4.082-1.234-2.8 0-4.509 2.207-1.708 2.207-1.708 5.743v7.261q0 3.607 1.685 5.814 1.708 2.183 4.77 2.183 2.206 0 3.464-.356 1.281-.356 2.017-.949v-6.17h-6.122v-5.315h14.143zm-27.788 44.124H66.99V79.206h7.997zm29.354-28.382h-9.136v28.382h-8.02V85.375h-8.97v-6.17h26.126z" aria-label="CINETAGIT" letter-spacing="0" text-anchor="end" word-spacing="0"/>
</svg>
