<?xml version="1.0" encoding="UTF-8" standalone="no"?>
<svg
        xmlns:dc="http://purl.org/dc/elements/1.1/"
        xmlns:cc="http://creativecommons.org/ns#"
        xmlns:rdf="http://www.w3.org/1999/02/22-rdf-syntax-ns#"
        xmlns="http://www.w3.org/2000/svg"
        xmlns:sodipodi="http://sodipodi.sourceforge.net/DTD/sodipodi-0.dtd"
        xmlns:inkscape="http://www.inkscape.org/namespaces/inkscape"
        width="104.34mm"
        height="113.76mm"
        version="1.1"
        viewBox="0 0 104.34 113.76"
        id="svg18"
        sodipodi:docname="favicon.svg"
        inkscape:version="1.0.1 (3bc2e813f5, 2020-09-07)">
  <defs
     id="defs22" />
  <sodipodi:namedview
     pagecolor="#ffffff"
     bordercolor="#666666"
     borderopacity="1"
     objecttolerance="10"
     gridtolerance="10"
     guidetolerance="10"
     inkscape:pageopacity="0"
     inkscape:pageshadow="2"
     inkscape:window-width="2442"
     inkscape:window-height="1284"
     id="namedview20"
     showgrid="false"
     inkscape:zoom="1.6873503"
     inkscape:cx="91.051814"
     inkscape:cy="187.41054"
     inkscape:window-x="0"
     inkscape:window-y="0"
     inkscape:window-maximized="0"
     inkscape:current-layer="text14" />
  <metadata
     id="metadata2">
    <rdf:RDF>
      <cc:Work
         rdf:about="">
        <dc:format>image/svg+xml</dc:format>
        <dc:type
           rdf:resource="http://purl.org/dc/dcmitype/StillImage" />
        <dc:title></dc:title>
      </cc:Work>
    </rdf:RDF>
  </metadata>
  <g
     transform="translate(-65.26 -61.95)"
     letter-spacing="0px"
     text-anchor="end"
     word-spacing="0px"
     id="g16">
    <g
       id="text6"
       style="font-size:10.583px;line-height:1.25;font-family:sans-serif;text-align:end;stroke-width:0.26458" />
    <g
       aria-label="CINETAGIT"
       id="text14"
       style="font-size:48.599px;line-height:0.8;font-family:Roboto;text-align:end;stroke-width:1.215">
      <path
         d="m 92.430179,85.347657 0.04746,0.14238 q 0.09492,5.908765 -3.345927,8.969932 -3.417117,3.037437 -9.705562,3.037437 -6.407094,0 -10.298811,-3.915446 -3.867987,-3.915447 -3.867987,-10.251352 v -7.213914 q 0,-6.312174 3.725607,-10.227621 3.749337,-3.939177 9.895402,-3.939177 6.573204,0 10.156431,3.061168 3.606957,3.061167 3.512037,8.898742 l -0.07119,0.14238 h -7.807163 q 0,-3.179817 -1.352609,-4.556156 -1.352609,-1.376339 -4.437506,-1.376339 -2.705218,0 -4.152747,2.183158 -1.447528,2.159429 -1.447528,5.766385 v 7.261374 q 0,3.630687 1.589908,5.813845 1.589909,2.183159 4.556156,2.183159 2.752678,0 3.962907,-1.376339 1.233959,-1.376339 1.233959,-4.603616 z"
         id="path25" />
      <path
         d="M 105.41048,96.999077 H 97.413475 V 62.448226 h 7.997005 z"
         id="path27" />
      <path
         d="m 140.22236,96.999077 h -7.99701 l -12.64808,-21.736662 -0.14238,0.04746 v 21.689202 h -8.02073 V 62.448226 h 8.02073 l 12.64808,21.712932 0.14238,-0.04746 V 62.448226 h 7.99701 z"
         id="path29" />
      <path
         d="m 165.92193,82.215299 h -12.17348 v 8.613983 h 14.59393 v 6.169795 H 145.72771 V 62.448226 h 22.6384 v 6.169795 h -14.61766 v 7.427484 h 12.17348 z"
         id="path31" />
      <path
         d="m 109.32593,107.97174 h -9.13605 v 28.38106 h -8.02073 v -28.38106 h -8.969933 v -6.16979 h 26.126713 z"
         id="path33" />
      <path
         d="m 128.07261,129.63721 h -10.27508 l -1.99332,6.71559 h -8.44787 l 11.27174,-34.55085 h 4.29512 v 0.0237 l 0.0237,-0.0237 h 4.29513 l 11.29547,34.55085 h -8.44787 z m -8.42414,-6.16979 h 6.5732 l -3.22728,-10.72595 h -0.14238 z"
         id="path35" />
      <path
         d="m 168.0339,131.58307 q -1.80348,2.18316 -5.07822,3.72561 -3.27474,1.54245 -8.42414,1.54245 -6.43083,0 -10.44119,-3.93918 -4.01037,-3.93918 -4.01037,-10.22762 v -7.21391 q 0,-6.24099 3.89172,-10.2039 3.91544,-3.9629 10.06151,-3.9629 6.62066,0 9.99032,2.96625 3.39339,2.94251 3.27474,8.06819 l -0.0475,0.14238 h -7.52241 q 0,-2.53911 -1.35261,-3.77307 -1.35261,-1.23396 -4.08155,-1.23396 -2.80014,0 -4.5087,2.20689 -1.70856,2.20689 -1.70856,5.74266 v 7.26137 q 0,3.60696 1.68483,5.81385 1.70856,2.18315 4.76973,2.18315 2.20688,0 3.46457,-0.35595 1.28142,-0.35595 2.01705,-0.9492 v -6.16979 h -6.12233 v -5.31552 h 14.14307 z"
         id="path37" />
      <path
         d="m 140.24609,175.70651 h -7.997 v -34.55085 h 7.997 z"
         id="path39" />
      <path
         d="m 169.60007,147.32546 h -9.13604 v 28.38105 h -8.02073 v -28.38105 h -8.96993 v -6.1698 h 26.1267 z"
         id="path41" />
    </g>
  </g>
</svg>
